<svg width="960" height="540" viewBox="0 0 960 540" fill="none" xmlns="http://www.w3.org/2000/svg">
  <defs>
    <linearGradient id="tealLine" x1="120" y1="150" x2="760" y2="150" gradientUnits="userSpaceOnUse">
      <stop stop-color="#007F73" stop-opacity="0.08"/>
      <stop offset="0.5" stop-color="#007F73" stop-opacity="0.28"/>
      <stop offset="1" stop-color="#F18F01" stop-opacity="0.18"/>
    </linearGradient>
    <linearGradient id="goldLine" x1="180" y1="320" x2="820" y2="320" gradientUnits="userSpaceOnUse">
      <stop stop-color="#F18F01" stop-opacity="0.06"/>
      <stop offset="0.5" stop-color="#F18F01" stop-opacity="0.22"/>
      <stop offset="1" stop-color="#007F73" stop-opacity="0.14"/>
    </linearGradient>
    <filter id="softBlur" x="-40" y="-40" width="1040" height="620" filterUnits="userSpaceOnUse" color-interpolation-filters="sRGB">
      <feFlood flood-opacity="0" result="BackgroundImageFix"/>
      <feGaussianBlur in="SourceGraphic" stdDeviation="6"/>
    </filter>
  </defs>

  <g filter="url(#softBlur)">
    <circle cx="170" cy="130" r="92" fill="#007F73" fill-opacity="0.08"/>
    <circle cx="760" cy="180" r="110" fill="#F18F01" fill-opacity="0.06"/>
    <circle cx="430" cy="370" r="124" fill="#007F73" fill-opacity="0.05"/>
  </g>

  <path d="M120 150H300C340 150 356 190 396 190H564C604 190 620 150 660 150H840" stroke="url(#tealLine)" stroke-width="6" stroke-linecap="round"/>
  <path d="M180 320H340C380 320 392 272 430 272H588C626 272 638 320 678 320H820" stroke="url(#goldLine)" stroke-width="6" stroke-linecap="round"/>
  <path d="M238 126L322 210" stroke="#007F73" stroke-opacity="0.16" stroke-width="4" stroke-linecap="round"/>
  <path d="M618 164L694 248" stroke="#F18F01" stroke-opacity="0.16" stroke-width="4" stroke-linecap="round"/>
  <path d="M430 268L430 194" stroke="#007F73" stroke-opacity="0.14" stroke-width="4" stroke-linecap="round"/>

  <circle cx="120" cy="150" r="18" fill="#007F73" fill-opacity="0.16"/>
  <circle cx="396" cy="190" r="18" fill="#007F73" fill-opacity="0.18"/>
  <circle cx="660" cy="150" r="18" fill="#F18F01" fill-opacity="0.18"/>
  <circle cx="840" cy="150" r="18" fill="#F18F01" fill-opacity="0.14"/>

  <circle cx="180" cy="320" r="16" fill="#F18F01" fill-opacity="0.14"/>
  <circle cx="430" cy="272" r="16" fill="#007F73" fill-opacity="0.16"/>
  <circle cx="678" cy="320" r="16" fill="#F18F01" fill-opacity="0.16"/>
  <circle cx="820" cy="320" r="16" fill="#007F73" fill-opacity="0.12"/>

  <circle cx="120" cy="150" r="6" fill="#007F73">
    <animateMotion dur="5s" repeatCount="indefinite" path="M0 0 H180 C220 0 236 40 276 40 H444 C484 40 500 0 540 0 H720"/>
    <animate attributeName="opacity" values="0;1;1;0" dur="5s" repeatCount="indefinite"/>
  </circle>

  <circle cx="180" cy="320" r="6" fill="#F18F01">
    <animateMotion dur="4.6s" begin="0.8s" repeatCount="indefinite" path="M0 0 H160 C200 0 212 -48 250 -48 H408 C446 -48 458 0 498 0 H640"/>
    <animate attributeName="opacity" values="0;1;1;0" dur="4.6s" begin="0.8s" repeatCount="indefinite"/>
  </circle>

  <circle cx="120" cy="150" r="4" fill="#7FE7D7">
    <animateMotion dur="5.2s" begin="1.7s" repeatCount="indefinite" path="M0 0 H180 C220 0 236 40 276 40 H444 C484 40 500 0 540 0 H720"/>
    <animate attributeName="opacity" values="0;1;1;0" dur="5.2s" begin="1.7s" repeatCount="indefinite"/>
  </circle>

  <circle cx="430" cy="272" r="22" stroke="#007F73" stroke-opacity="0.24" stroke-width="2">
    <animate attributeName="r" values="18;26;18" dur="2.4s" repeatCount="indefinite"/>
    <animate attributeName="stroke-opacity" values="0.14;0.32;0.14" dur="2.4s" repeatCount="indefinite"/>
  </circle>

  <circle cx="660" cy="150" r="22" stroke="#F18F01" stroke-opacity="0.24" stroke-width="2">
    <animate attributeName="r" values="18;28;18" dur="2.8s" begin="0.5s" repeatCount="indefinite"/>
    <animate attributeName="stroke-opacity" values="0.14;0.3;0.14" dur="2.8s" begin="0.5s" repeatCount="indefinite"/>
  </circle>
</svg>
